<svg version="1.2" xmlns="http://www.w3.org/2000/svg" viewBox="0 0 512 512" width="512" height="512">
	<style>
		.s0 { fill: #000000 } 
		.s1 { fill: #fd8087 } 
		.s2 { fill: #ffdc48 } 
		.s3 { fill: #fe99a0 } 
		.s4 { fill: #fb8801 } 
		.s5 { fill: #fea613 } 
	</style>
	<g id="Background">
		<path id="Path 0" class="s0" d="m177.5 2.41c-3.85 1.24-8.8 3.17-11 4.31-2.2 1.13-6.88 4.25-10.4 6.92-3.51 2.67-8.42 7.56-10.89 10.86-2.48 3.3-5.75 8.7-7.27 12-1.52 3.3-3.53 9.83-4.48 14.5-1.19 5.92-1.53 10.62-1.09 15.5 0.35 3.85 1.36 9.47 2.24 12.5 0.89 3.03 3.03 8.42 4.75 12 2.15 4.45 5.66 9.06 11.14 14.63 5.73 5.82 9.99 9.12 15 11.64 3.85 1.94 9.7 4.32 13 5.3 3.94 1.17 9.44 1.79 16 1.82 7.73 0.03 11.7-0.48 17.5-2.28 4.13-1.28 9.07-3.12 11-4.11 1.93-0.98 6.38-3.97 9.9-6.64 3.51-2.67 8.41-7.56 10.89-10.86 2.47-3.3 5.55-8.25 6.84-11 1.29-2.75 2.37-6.13 2.39-7.5 0.02-1.38-0.99-3.5-2.24-4.73-1.26-1.22-3.29-2.24-4.53-2.25-1.24-0.01-3.15 0.43-4.25 0.98-1.1 0.55-3.42 3.81-5.15 7.25-1.73 3.44-5.67 8.87-8.75 12.07-3.42 3.56-8.13 7.1-12.1 9.09-3.7 1.87-9.73 3.82-14 4.55-5.89 1-9 1.03-14.5 0.1-3.85-0.65-9.93-2.58-13.5-4.28-4.1-1.97-8.74-5.35-12.58-9.2-3.74-3.75-7.28-8.57-9.22-12.58-1.8-3.71-3.66-9.72-4.33-14-0.93-5.95-0.9-8.95 0.14-14.5 0.72-3.85 2.86-10 4.76-13.66 2.15-4.15 5.75-8.85 9.59-12.5 3.38-3.21 8.62-7.02 11.65-8.46 3.02-1.43 7.85-3.12 10.74-3.75 2.89-0.62 7.28-1.13 9.75-1.13 2.47 0 6.86 0.5 9.75 1.1 2.89 0.61 8.13 2.52 11.64 4.25 3.52 1.73 8.5 5.17 11.07 7.65 2.57 2.48 5.88 6.41 7.36 8.75 1.47 2.34 3.6 6.61 4.72 9.5 1.12 2.89 3.04 6.06 4.25 7.04 1.22 0.99 3.24 1.78 4.51 1.75 1.26-0.02 3.47-1.28 4.91-2.79 2.16-2.28 2.5-3.35 1.98-6.25-0.35-1.92-2.44-7.21-4.66-11.75-3.03-6.2-5.83-10.05-11.29-15.5-4.64-4.63-9.8-8.57-14.25-10.9-3.85-2.01-10.14-4.59-13.99-5.74-5.07-1.5-9.62-2.06-16.5-2.01-6.96 0.04-11.37 0.66-16.5 2.31zm105.16 92.93c-2.5 2.5-2.57 2.93-2.61 16.11l-0.05 13.55c-4.26 0.82-8.43 1.94-12 3.02-3.57 1.08-6.84 1.96-7.25 1.97-0.41 0.01-0.74-2.35-0.72-5.24 0.02-4.16-0.45-5.71-2.25-7.48-1.26-1.22-3.4-2.26-4.78-2.29-1.37-0.04-3.62 0.81-5 1.89-2.35 1.83-2.52 2.6-2.83 12.79-0.31 10.23-0.49 11.01-3.1 13.84-1.52 1.65-3.93 4.57-5.36 6.5-1.42 1.92-3.86 5.87-5.4 8.77l-2.81 5.27c-9.3-8.04-14.25-11.82-17-13.58-2.75-1.75-8.15-4.77-12-6.7-3.85-1.94-9.61-4.36-12.8-5.39-5.31-1.71-6.15-1.74-9.97-0.37-2.69 0.97-4.98 2.74-6.48 5-2.28 3.46-2.31 3.82-2.28 33.25l0.03 29.75c-11.24 6.02-18.69 10.92-23.8 14.76-5.12 3.84-12.7 10.76-16.85 15.36-4.14 4.61-9.93 11.98-12.85 16.38-2.93 4.4-7.33 12.05-9.8 17-2.46 4.95-5.88 13.39-7.59 18.75-1.71 5.36-3.67 12.91-4.36 16.77l-1.25 7.01c-28.25-0.02-30.38 0.21-33.25 1.97-1.79 1.1-4.04 3.46-5 5.25-1.6 2.98-1.72 6.69-1.39 44.25 0.29 32.39 0.66 41.58 1.75 43.75 0.77 1.51 2.85 3.65 4.64 4.75 3.01 1.84 5 1.99 26.75 1.97l23.5-0.02c9.23 13.66 16.77 22.45 22.93 28.6 6.78 6.76 14.75 13.5 20.57 17.36 5.23 3.48 13.44 8.18 18.26 10.45l8.75 4.14-0.01 22.5c-120.3-0.07-121.55-0.03-124.25 1.97-2 1.48-2.76 2.91-2.78 5.28-0.01 2.09 0.79 4.05 2.25 5.48l2.28 2.23 399 0.09c3.6-3.67 4.47-5.81 4.48-7.8 0.01-2.4-0.7-3.78-2.73-5.28-2.61-1.94-4.13-2.04-30.5-2l-27.75 0.03 0.12-37.5c10.86-7.75 17.86-14.05 22.56-19 4.69-4.95 11.24-13.05 14.55-18 3.3-4.95 7.26-11.48 8.79-14.5 1.53-3.02 4.12-8.88 5.76-13 1.64-4.13 3.93-11.32 5.09-16 1.15-4.68 2.78-13.45 3.62-19.5 0.84-6.05 1.52-15.95 1.51-22-0.01-6.05-0.94-17.3-2.08-25-1.13-7.7-3.42-18.27-5.07-23.5-1.65-5.23-5.45-14.45-8.44-20.5-2.98-6.05-8.35-14.94-11.92-19.75-3.57-4.81-7.5-9.26-8.74-9.89-1.67-0.84-3.03-0.84-5.25-0.02-1.65 0.62-3.56 2.26-4.25 3.64-0.69 1.39-0.95 3.53-0.59 4.77 0.37 1.24 3.19 5.62 6.27 9.75 3.07 4.12 7.69 11.55 10.26 16.5 2.56 4.95 6.03 13.05 7.69 18 1.66 4.95 3.72 13.27 4.57 18.5 0.98 6.04 1.54 16.05 1.54 27.5 0 11.19-0.56 21.5-1.49 27.25-0.83 5.09-2.68 12.96-4.11 17.5-1.44 4.54-4.23 11.62-6.19 15.75-1.96 4.12-6.3 11.55-9.63 16.5-3.33 4.95-9.65 12.63-14.06 17.07-4.41 4.43-11.61 10.56-16.01 13.61-4.4 3.05-8.34 6.28-8.75 7.18-0.41 0.9-0.75 11.32-0.75 23.14v21.5l-47.5 0.03c-2.06-14.36-3.07-20.22-3.58-22.28-0.51-2.08-1.81-4.19-2.92-4.75-1.1-0.55-8.98-1-17.5-1-14.17 0-15.67 0.17-17.5 2-1.24 1.24-2 3.33-2 5.5 0 2.66 0.66 3.99 2.75 5.53 2.35 1.75 4.23 2.03 13 2 5.64-0.01 10.42 0.31 10.63 0.72 0.2 0.41 0.65 3.34 1 6.5l0.62 5.75h-64c0.97-8.91 1.42-11.84 1.62-12.25 0.21-0.41 2.07-0.73 4.13-0.72 2.25 0.03 4.85-0.78 6.5-2 2.09-1.54 2.75-2.87 2.75-5.53 0-2.17-0.76-4.26-2-5.5-1.7-1.7-3.33-2-11-2-4.95 0-9.9 0.45-11 1-1.11 0.56-2.41 2.67-2.92 4.75-0.51 2.06-1.52 7.92-2.25 13.01l-1.33 9.27-47.5-0.03c0.03-26.04-0.34-30.99-1.23-32.16-0.7-0.92-6.22-3.85-12.27-6.51-6.05-2.67-15.05-7.52-20-10.79-5.02-3.31-13.22-10.16-18.55-15.49-5.85-5.84-11.94-13.24-15.69-19.05-3.38-5.23-7.07-10.51-8.2-11.75-2.03-2.22-2.43-2.25-26.56-2.25h-24.5v-72c31.36 0.08 33.8-0.14 35.83-1.71 1.92-1.47 2.59-3.47 3.75-11.29 0.77-5.23 2.56-13.55 3.98-18.5 1.41-4.95 4.37-12.83 6.57-17.5 2.2-4.68 6.41-12.1 9.36-16.5 2.95-4.4 8.43-11.33 12.19-15.4 3.75-4.06 10.87-10.42 15.82-14.12 4.95-3.69 13-8.92 17.89-11.6 4.89-2.68 9.28-5.67 9.75-6.63 0.47-0.96 0.86-15.03 0.86-31.25 0-16.23 0.23-29.5 0.5-29.5 0.28 0 3.54 1.38 7.25 3.07 3.71 1.69 9.68 5.01 13.25 7.39 3.57 2.38 9.65 7.64 13.5 11.69l7 7.36c0.52 13.14 1.53 18.66 3.14 23.49 1.39 4.12 4.02 9.97 5.85 13 1.83 3.02 4.26 6.4 5.4 7.5 1.14 1.1 1.86 2.34 1.59 2.75-0.26 0.41-1.85 0.75-3.53 0.75-1.92 0-3.94 0.92-5.5 2.5-1.35 1.37-2.45 3.62-2.45 5 0 1.37 1.13 3.62 2.5 5l2.5 2.5c83.7 0 108.74-0.34 109.64-0.75 0.9-0.41 2.25-1.99 3-3.5 0.85-1.72 1.08-3.74 0.61-5.4-0.41-1.46-1.65-3.27-2.75-4.01-1.1-0.75-3.8-1.34-6-1.32-2.2 0.02-4.32-0.31-4.71-0.74-0.38-0.43 0.88-2.81 2.82-5.28 1.93-2.48 4.73-6.89 6.2-9.82 2.54-5.02 2.86-5.28 5.69-4.65 1.65 0.36 7.05 2 12 3.63 4.95 1.64 13.05 5.12 18 7.74 4.95 2.62 10.8 5.81 13 7.09 3.66 2.12 4.26 2.2 6.98 0.92 1.63-0.78 3.43-2.65 4-4.16 0.68-1.85 0.69-3.62 0.02-5.39q-1-2.64-9.5-7.78c-4.68-2.82-12.55-6.85-17.5-8.94-4.95-2.09-12.82-4.82-17.5-6.06l-8.5-2.27c-1.01-15.35-2.24-22.74-3.37-26.31-1.13-3.58-3.68-9.2-5.65-12.5-1.98-3.3-5.59-8.03-8.03-10.5l-4.43-4.5c-0.02-16.08-0.16-16.6-2.77-18.53-1.51-1.12-3.65-2.03-4.75-2.01-1.1 0.01-3.01 0.7-4.25 1.53-1.24 0.83-2.59 3.1-3 5.05-0.55 2.61-1.14 3.37-2.25 2.91-0.82-0.34-4.65-1.43-8.5-2.42l-7-1.8c-0.88-24.76-1.36-28.53-2.5-29.67-0.82-0.83-2.91-1.79-4.64-2.14-2.53-0.52-3.62-0.15-5.7 1.92z"/>
		<path id="Path 1" class="s1" d="m183 182.5c0 16.22-0.39 30.29-0.86 31.25-0.47 0.96-4.86 3.95-9.75 6.63-4.89 2.68-12.94 7.91-17.89 11.6-4.95 3.7-12.07 10.06-15.82 14.12-3.76 4.07-9.24 11-12.19 15.4-2.95 4.4-7.16 11.82-9.36 16.5-2.2 4.68-5.16 12.55-6.57 17.5-1.42 4.95-3.21 13.27-3.98 18.5-1.16 7.82-1.83 9.82-3.75 11.29-2.03 1.57-4.47 1.79-19.08 1.75l-16.75-0.04v72h31l0.5-49.5c17.45-0.38 21.4-0.89 22.18-1.73 0.65-0.7 1.9-6 2.78-11.77 0.87-5.77 2.29-13.2 3.15-16.5 0.86-3.3 3.12-10.05 5.03-15 1.91-4.95 5.28-12.37 7.51-16.5 2.22-4.12 6.12-10.43 8.67-14 2.56-3.57 7.15-9.43 10.22-13 3.06-3.57 9.37-9.71 14.01-13.63 4.65-3.92 11.6-9.15 15.45-11.62 3.85-2.47 10.15-6.06 14-7.97 3.85-1.92 7.34-4.22 7.75-5.13 0.41-0.91 0.76-13.69 0.76-28.4l0.02-26.75c-10.49-6.9-16.34-10.16-19.78-11.7-3.44-1.54-6.47-2.8-6.75-2.8-0.28 0-0.5 13.28-0.5 29.5z"/>
		<path id="Path 2" class="s2" d="m183.5 16.42c-2.75 0.69-7.25 2.34-10 3.66-2.75 1.32-7.85 5.11-11.34 8.41-4.14 3.93-7.46 8.26-9.59 12.51-1.79 3.58-3.84 9.65-4.56 13.5-1.04 5.55-1.07 8.55-0.14 14.5 0.67 4.28 2.53 10.29 4.33 14 1.94 4.01 5.48 8.83 9.22 12.58 3.84 3.85 8.48 7.23 12.58 9.2 3.57 1.7 9.65 3.63 13.5 4.28 5.5 0.93 8.61 0.9 14.5-0.1 4.27-0.73 10.3-2.68 14-4.55 3.97-1.99 8.68-5.53 12.1-9.09 3.08-3.2 7.02-8.63 8.75-12.07 1.73-3.44 3.71-6.56 4.4-6.94 0.69-0.38 2.6-0.97 4.25-1.3 2.7-0.54 3.08-1.1 3.8-5.55 0.45-2.73 0.67-6.93 0.5-9.33-0.27-4.01-0.59-4.47-3.77-5.5-1.97-0.64-4-2.21-4.71-3.63-0.68-1.38-2.72-5.62-4.53-9.44-2.08-4.38-5.34-8.98-8.85-12.5-3.22-3.22-8.28-6.89-12-8.71-3.54-1.73-8.8-3.64-11.69-4.25-2.89-0.6-7.61-1.06-10.5-1.01-2.89 0.04-7.5 0.64-10.25 1.33z"/>
		<path id="Path 3" class="s3" d="m210.03 194.25c-0.02 14.71-0.37 27.49-0.78 28.4-0.41 0.91-3.9 3.21-7.75 5.13-3.85 1.91-10.15 5.5-14 7.97-3.85 2.47-10.8 7.7-15.45 11.62-4.64 3.92-10.95 10.06-14.01 13.63-3.07 3.57-7.66 9.43-10.22 13-2.55 3.57-6.45 9.88-8.67 14-2.23 4.13-5.6 11.55-7.51 16.5-1.91 4.95-4.17 11.7-5.03 15-0.86 3.3-2.28 10.73-3.15 16.5-0.88 5.77-2.13 11.07-2.78 11.77-0.78 0.84-4.73 1.35-11.68 1.5l-10.5 0.23-0.5 49.5c17.06 0 18.22 0.24 20.06 2.25 1.13 1.24 4.82 6.52 8.2 11.75 3.75 5.81 9.84 13.21 15.69 19.05 5.33 5.33 13.53 12.18 18.55 15.49 4.95 3.27 13.95 8.12 20 10.79 6.05 2.66 11.57 5.59 12.27 6.51 0.89 1.17 1.26 6.12 1.25 16.91l-0.02 15.25 47.5 0.03c2.06-14.36 3.07-20.22 3.58-22.28 0.51-2.08 1.81-4.19 2.92-4.75 1.1-0.55 5.82-1 10.5-1 4.68 0 9.4 0.45 10.5 1 1.1 0.55 2.45 2.35 3 4l1 3h19c1.55-4.65 2.9-6.45 4-7 1.1-0.55 8.75-1 17-1 8.25 0 15.9 0.45 17 1 1.11 0.56 2.41 2.67 2.92 4.75 0.51 2.06 1.52 7.92 2.25 13.01l1.33 9.27 47.5-0.03c0-33.32 0.34-43.74 0.75-44.64 0.41-0.9 4.35-4.13 8.75-7.18 4.4-3.05 11.6-9.18 16.01-13.61 4.41-4.44 10.73-12.12 14.06-17.07 3.33-4.95 7.67-12.37 9.63-16.5 1.96-4.12 4.75-11.21 6.19-15.75 1.43-4.54 3.28-12.41 4.11-17.5 0.93-5.75 1.49-16.06 1.49-27.25 0-11.45-0.56-21.46-1.54-27.5-0.85-5.23-2.91-13.55-4.57-18.5-1.66-4.95-5.13-13.05-7.69-18-2.57-4.95-7.19-12.37-10.26-16.5-3.08-4.12-5.9-8.51-6.27-9.75-0.38-1.3-0.04-3.42 0.79-5 1.41-2.66 1.32-2.88-2.75-6.77-2.31-2.22-5.43-5.14-6.93-6.5l-2.72-2.48c-7.55 3.8-7.55 3.8-11.55 1.48-2.2-1.27-8.05-4.46-13-7.08-4.95-2.62-13.05-6.1-18-7.74-4.95-1.63-10.35-3.27-12-3.63-2.83-0.63-3.15-0.37-5.69 4.65-1.47 2.93-4.27 7.35-6.2 9.82-1.94 2.47-3.2 4.85-2.82 5.28 0.39 0.43 2.51 0.76 4.71 0.74 2.2-0.02 4.9 0.57 6 1.32 1.1 0.74 2.34 2.55 2.75 4.01 0.47 1.66 0.24 3.68-0.61 5.4-0.75 1.51-2.1 3.09-3 3.5-0.9 0.41-25.94 0.75-55.64 0.75h-54c-3.88-3.87-5-6.12-5-7.5 0-1.37 1.1-3.62 2.45-5 1.56-1.58 3.58-2.5 5.5-2.5 1.68 0 3.27-0.34 3.53-0.75 0.27-0.41-0.45-1.65-1.59-2.75-1.14-1.1-3.57-4.47-5.4-7.5-1.83-3.03-4.46-8.87-5.85-13-1.61-4.83-2.62-10.35-2.82-15.5l-0.32-8-14.44-15z"/>
		<path id="Path 4" class="s0" d="m183.45 30.78c-2.78 0.95-6.72 2.96-8.75 4.47-2.04 1.51-5.09 4.66-6.78 7-1.7 2.34-3.8 5.83-4.66 7.75-1.01 2.23-1.61 6.59-1.67 12.02-0.08 7.66 0.24 9.19 3.16 15.25 2.14 4.43 4.7 7.9 7.5 10.16 2.34 1.89 6.5 4.47 9.25 5.74 3.89 1.79 6.79 2.3 13.02 2.32 6.97 0.01 8.87-0.4 14.5-3.13 3.94-1.91 7.97-4.85 10.27-7.5 2.09-2.4 4.79-6.39 6-8.86 1.78-3.63 2.21-6.25 2.21-13.5 0-7.69-0.39-9.8-2.66-14.5-1.59-3.29-4.8-7.43-8-10.31-2.98-2.69-7.66-5.67-10.59-6.75-3.18-1.18-7.71-1.93-11.5-1.91-3.44 0.02-8.52 0.81-11.3 1.75zm98.53 34.53c-1.49 1.46-2.29 3.32-2.17 5 0.1 1.48 1.43 3.88 2.94 5.34 2.21 2.13 3.34 2.52 5.75 2 1.65-0.36 3.81-1.67 4.79-2.9 0.99-1.24 1.78-3.26 1.75-4.5-0.02-1.24-1.16-3.38-2.54-4.75-1.49-1.49-3.64-2.5-5.33-2.5-1.61 0-3.85 1-5.19 2.31zm107.02 23.67c-2.48 0.42-6.75 1.89-9.5 3.27-2.75 1.38-6.91 4.59-9.25 7.13-2.34 2.54-5.23 6.76-6.42 9.37-1.69 3.69-2.18 6.65-2.18 13.25 0 6.6 0.49 9.56 2.18 13.25 1.19 2.61 4.13 6.89 6.54 9.5 2.78 3.03 6.68 5.8 10.75 7.66 4.91 2.23 7.88 2.91 12.88 2.93 3.85 0.02 8.75-0.74 12-1.86 3.02-1.04 7.52-3.52 10-5.5 2.68-2.15 5.91-6.21 8-10.05 3.3-6.07 3.5-6.96 3.5-15.93-0.01-8.41-0.32-10.1-2.75-14.75-1.51-2.89-4.89-7.31-7.5-9.82-2.77-2.66-6.84-5.32-9.75-6.37-2.75-0.99-7.02-2.03-9.5-2.32-2.48-0.29-6.52-0.18-9 0.24zm-74.04 4.65c-1.19 1.45-2.12 3.25-2.06 4 0.05 0.76 0.66 2.49 1.35 3.87 0.69 1.37 2.26 2.94 3.5 3.5 1.24 0.55 2.95 1 3.8 1 0.85 0 2.65-1.13 4-2.5 1.38-1.41 2.46-3.7 2.48-5.25 0.01-1.57-0.96-3.71-2.25-4.98-1.38-1.35-3.54-2.24-5.46-2.25-2.25-0.01-3.83 0.76-5.36 2.61zm-222.46 29.32c-2.2 0.45-5.91 1.77-8.25 2.93-2.34 1.17-5.94 3.64-8 5.49-2.06 1.86-4.95 5.57-6.41 8.25-1.47 2.69-3.16 7.47-3.75 10.63-0.79 4.16-0.79 7.34 0.01 11.5 0.61 3.16 1.96 7.44 3 9.5 1.05 2.06 3.59 5.59 5.65 7.83 2.06 2.25 6 5.18 8.75 6.51 2.75 1.34 7.25 2.81 10 3.27 2.75 0.46 7.59 0.46 10.75-0.01 3.16-0.47 7.55-1.75 9.75-2.85 2.2-1.1 5.69-3.52 7.75-5.37 2.06-1.86 4.95-5.57 6.41-8.25 1.47-2.69 3.16-7.47 3.75-10.63 0.79-4.14 0.79-7.36 0-11.5-0.59-3.16-2.28-7.94-3.75-10.63-1.46-2.68-4.46-6.48-6.66-8.44-2.2-1.96-6.25-4.57-9-5.8-2.75-1.22-7.47-2.46-10.5-2.74-3.02-0.28-7.3-0.14-9.5 0.31zm44.5 179.05c-1.88 1.88-2 3.33-2 24 0 12.1 0.34 22.74 0.75 23.64 0.41 0.9 1.99 2.25 3.5 3 1.99 0.98 3.51 1.09 5.5 0.38 1.51-0.53 3.31-2.11 4-3.5 0.88-1.76 1.26-8.74 1.28-23.27 0.04-19.33-0.1-20.94-2-23.5-1.54-2.09-2.87-2.75-5.53-2.75-2.17 0-4.26 0.76-5.5 2z"/>
		<path id="Path 5" class="s2" d="m274 141.62c-3.02 0.82-7.97 2.93-10.99 4.69-3.02 1.75-7.63 5.33-10.25 7.94-2.76 2.75-6.23 7.8-8.26 12-2.15 4.46-3.87 9.94-4.47 14.25-0.65 4.64-0.63 9.19 0.04 13.5 0.56 3.57 2.35 9.31 3.97 12.75 1.63 3.44 5.32 8.78 8.21 11.87 2.89 3.09 7.5 6.91 10.25 8.49l5 2.87 39 0.09c9.96-6.64 14.24-10.2 15.93-12.19 1.69-1.99 4.28-5.81 5.76-8.5 1.48-2.68 3.39-7.58 4.25-10.88 0.86-3.3 1.57-8.47 1.57-11.5 0-3.03-0.68-8.09-1.5-11.25-0.83-3.16-2.7-8.11-4.16-11-1.46-2.89-5.18-7.77-8.25-10.85-3.08-3.07-8.08-6.85-11.1-8.4-3.02-1.54-7.75-3.4-10.5-4.14-2.75-0.73-8.15-1.31-12-1.28-3.85 0.03-9.48 0.72-12.5 1.54z"/>
		<path id="Path 6" class="s4" d="m186.5 45.66c-1.65 0.87-4.03 2.54-5.29 3.71-1.25 1.17-2.99 3.93-3.85 6.13-1.05 2.69-1.38 5.64-1 9 0.31 2.75 1.51 6.35 2.68 8 1.16 1.65 3.54 4.02 5.29 5.27 1.74 1.25 5.2 2.57 7.67 2.94l4.5 0.67c-4.01-5.33-5.78-8.45-6.52-10.38-0.73-1.92-1.29-5.97-1.22-9 0.06-3.02 0.62-6.85 1.25-8.5 0.62-1.65 2.23-4.46 3.56-6.25l2.43-3.25c-5.04 0.06-7.85 0.79-9.5 1.66zm-93 92.63c-2.2 0.6-5.59 2.69-7.54 4.65-2.27 2.28-3.98 5.27-4.75 8.31-0.91 3.56-0.93 5.82-0.1 9 0.61 2.34 1.96 5.49 3 7 1.04 1.51 3.58 3.59 5.64 4.61 2.06 1.02 5.21 2.14 7 2.5 1.79 0.35 3.25 0.42 3.25 0.14 0-0.27-1.15-2.19-2.54-4.25-1.4-2.06-2.98-5.32-3.5-7.25-0.52-1.92-0.95-5.52-0.94-8 0-2.72 0.99-6.58 2.49-9.75 1.37-2.89 2.94-5.47 3.49-5.75 0.55-0.27 1-0.95 1-1.5 0-0.55-0.56-0.95-1.25-0.9-0.69 0.06-3.05 0.6-5.25 1.19z"/>
		<path id="Path 7" class="s0" d="m280.5 153.96c-2.2 0.44-6.25 1.93-9 3.3-2.75 1.38-6.91 4.58-9.25 7.12-2.34 2.54-5.22 6.76-6.41 9.37-1.6 3.52-2.19 6.82-2.25 12.77-0.08 7.05 0.29 8.8 3.05 14.5 2 4.12 4.92 8.05 8 10.78 2.68 2.37 7.34 5.22 10.36 6.35 4.37 1.62 7.15 1.96 13.5 1.62 5.7-0.3 9.3-1.08 12.5-2.7 2.48-1.25 6.45-4.14 8.83-6.42 2.39-2.28 5.5-6.4 6.92-9.15 1.86-3.61 2.71-7.08 3.05-12.5 0.34-5.39 0.01-8.91-1.19-12.5-0.91-2.75-3.14-7.03-4.94-9.5-1.81-2.47-5.51-5.98-8.23-7.79-2.72-1.81-6.51-3.69-8.44-4.18-1.93-0.5-5.52-1.12-8-1.39-2.48-0.27-6.3-0.13-8.5 0.32z"/>
		<path id="Path 8" class="s2" d="m393.29 107.25c-1.2 1.79-2.65 4.49-3.23 6-0.58 1.51-1.05 5.56-1.04 9 0.02 4.22 0.67 7.55 2.03 10.25 1.1 2.2 2.55 4.94 3.23 6.08 0.67 1.14 1.67 1.97 2.22 1.84 0.55-0.14 2.24-0.51 3.75-0.83 1.51-0.33 4.4-2.05 6.41-3.84 2.01-1.79 4.26-4.71 5-6.5 0.74-1.79 1.34-5.05 1.34-7.25 0-2.2-0.48-5.24-1.06-6.75-0.59-1.51-2.28-4.03-3.75-5.59-1.48-1.56-3.93-3.47-5.44-4.25-1.51-0.78-3.77-1.41-5.02-1.41-1.45 0-3.06 1.18-4.44 3.25z"/>
		<path id="Path 9" class="s5" d="m193.62 47.25c-1.36 1.79-2.99 4.6-3.61 6.25-0.63 1.65-1.19 5.48-1.25 8.5-0.07 3.03 0.49 7.08 1.22 9 0.74 1.92 2.51 5.01 3.93 6.86 2.13 2.75 3.04 3.23 5.09 2.69 1.37-0.37 4.07-1.68 6-2.92 1.93-1.24 4.51-4.25 5.74-6.69 1.25-2.49 2.24-6.31 2.25-8.69 0-2.34-0.84-5.94-1.88-8-1.05-2.06-2.73-4.48-3.75-5.38-1.02-0.9-3.32-2.36-5.11-3.25-1.79-0.89-3.9-1.62-4.7-1.62-0.81 0-2.57 1.46-3.93 3.25zm196.38 56.8c-1.93 0.47-4.63 1.7-6 2.74-1.37 1.04-3.53 3.43-4.78 5.3-1.25 1.88-2.54 4.76-2.86 6.41-0.32 1.65-0.32 4.58 0 6.5 0.32 1.92 1.61 5.03 2.86 6.91 1.25 1.87 3.41 4.25 4.78 5.28 1.38 1.03 4.3 2.28 6.5 2.78 2.2 0.5 4.23 0.69 4.5 0.42 0.27-0.27-0.07-1.26-0.77-2.19-0.7-0.94-2.15-3.5-3.23-5.7-1.33-2.72-1.96-6.08-1.96-10.5 0-4.38 0.65-7.89 1.98-10.75 1.09-2.34 2.43-4.47 2.98-4.75 0.55-0.28 1-1.17 1-2 0-0.83-0.34-1.45-0.75-1.4-0.41 0.06-2.32 0.49-4.25 0.95zm-291.92 36.35c-1.09 1.7-2.68 4.79-3.53 6.85-0.85 2.06-1.55 5.66-1.54 8 0 2.34 0.43 5.82 0.95 7.75 0.53 1.93 2 5.07 3.28 7 1.31 1.97 3.3 3.61 4.54 3.75 1.22 0.14 4.02-0.65 6.22-1.75 2.2-1.1 4.85-3.24 5.89-4.75 1.04-1.51 2.39-4.66 3-7 0.83-3.18 0.81-5.44-0.1-9-0.77-3.05-2.47-6.02-4.75-8.29-2.11-2.11-5.24-3.97-7.75-4.6-4.1-1.03-4.28-0.97-6.21 2.04z"/>
		<path id="Path 10" class="s4" d="m284.5 168.49c-0.55 0.18-2.24 0.6-3.75 0.92-1.51 0.33-4.35 2.05-6.31 3.84-1.96 1.79-4.26 5.05-5.11 7.25-1.05 2.71-1.34 5.45-0.89 8.5 0.35 2.47 1.75 6.19 3.1 8.25 1.35 2.06 4.26 4.65 6.46 5.75 2.2 1.1 5.35 2 7 2h3c-3.66-5.04-5.24-8.07-5.88-10-0.63-1.93-1.14-5.98-1.11-9 0.02-3.35 0.8-7.07 1.98-9.5 1.07-2.2 2.58-5.01 3.35-6.25 0.92-1.48 1.02-2.22 0.28-2.17-0.62 0.04-1.57 0.23-2.12 0.41z"/>
		<path id="Path 11" class="s5" d="m285.55 171.84c-1.34 2.01-2.91 4.9-3.49 6.41-0.58 1.51-1.05 5.11-1.04 8 0.01 2.89 0.57 6.99 1.25 9.12 0.67 2.13 2.35 5.23 3.73 6.87 2.24 2.68 2.87 2.91 6 2.2 1.93-0.44 5.03-2.18 6.91-3.87 1.87-1.69 4.01-4.53 4.75-6.32 0.74-1.79 1.33-5.39 1.31-8-0.02-3.04-0.84-6.13-2.25-8.58-1.22-2.11-3.57-4.69-5.22-5.72-1.65-1.04-4.46-2.31-6.26-2.83-3.05-0.88-3.4-0.71-5.69 2.72z"/>
	</g>
</svg>